<?xml version="1.0" encoding="utf-8"?>
<!-- Generator: Adobe Illustrator 21.0.0, SVG Export Plug-In . SVG Version: 6.00 Build 0)  -->
<svg version="1.1" id="Layer_1" xmlns="http://www.w3.org/2000/svg" xmlns:xlink="http://www.w3.org/1999/xlink" x="0px" y="0px"
	 viewBox="0 0 384 114.5" style="enable-background:new 0 0 384 114.5;" xml:space="preserve">
<style type="text/css">
	.st0{fill:url(#SVGID_1_);}
	.st1{fill:url(#SVGID_2_);}
	.st2{fill:url(#SVGID_3_);}
	.st3{fill:url(#SVGID_4_);}
	.st4{fill:url(#SVGID_5_);}
	.st5{fill:url(#SVGID_6_);}
	.st6{fill:url(#SVGID_7_);}
	.st7{fill:url(#SVGID_8_);}
	.st8{fill:url(#SVGID_9_);}
	.st9{fill:url(#SVGID_10_);}
	.st10{fill:#454545;}
	.st11{fill:#C0D850;}
</style>
<g>
	<g>
		
			<linearGradient id="SVGID_1_" gradientUnits="userSpaceOnUse" x1="185.4012" y1="198.9408" x2="185.4012" y2="130.1561" gradientTransform="matrix(1 0 0 -1 0 201.0417)">
			<stop  offset="0" style="stop-color:#7FCDC4"/>
			<stop  offset="0.2469" style="stop-color:#88CDA9"/>
			<stop  offset="0.5415" style="stop-color:#90CC8C"/>
			<stop  offset="0.6486" style="stop-color:#9ECF7E"/>
			<stop  offset="0.8769" style="stop-color:#B7D65E"/>
			<stop  offset="1" style="stop-color:#C0D850"/>
		</linearGradient>
		<path class="st0" d="M198.7,52.1c0,7.4-6,13.3-13.3,13.3c-7.4,0-13.3-6-13.3-13.3c0-4.3,2-8.1,5.2-10.5l8.2,6.6l-2,1.6
			c-0.7,0.6-1.2,1.5-1.2,2.5c0,1.8,1.4,3.2,3.2,3.2s3.2-1.4,3.2-3.2c0-1-0.4-1.9-1.1-2.4c-0.1-0.1-0.2-0.1-0.2-0.2l-2-1.5l8.1-6.6
			l0.1-0.1C196.7,44,198.7,47.8,198.7,52.1z"/>
		
			<linearGradient id="SVGID_2_" gradientUnits="userSpaceOnUse" x1="204.8018" y1="198.9408" x2="204.8018" y2="130.1507" gradientTransform="matrix(1 0 0 -1 0 201.0417)">
			<stop  offset="0" style="stop-color:#7FCDC4"/>
			<stop  offset="0.2469" style="stop-color:#88CDA9"/>
			<stop  offset="0.5415" style="stop-color:#90CC8C"/>
			<stop  offset="0.6486" style="stop-color:#9ECF7E"/>
			<stop  offset="0.8769" style="stop-color:#B7D65E"/>
			<stop  offset="1" style="stop-color:#C0D850"/>
		</linearGradient>
		<path class="st1" d="M204.8,1.2c-7.5,0-13.6,6.1-13.6,13.6c0,3.2,1.1,6.2,3,8.5l1.9,2.9l8-6.4l-1.8-2.8l-0.4-0.7
			c-0.2-0.4-0.3-0.8-0.3-1.3c0-1.7,1.4-3.1,3.1-3.1s3.1,1.3,3.1,3.1c0,0.9-0.4,1.8-1.4,2.8l-2.3,2l5.5,8.6l2.4-1.9
			c3.8-2.4,6.4-6.7,6.4-11.6C218.5,7.3,212.4,1.2,204.8,1.2z"/>
		
			<linearGradient id="SVGID_3_" gradientUnits="userSpaceOnUse" x1="193.5513" y1="198.9408" x2="193.5513" y2="130.1561" gradientTransform="matrix(1 0 0 -1 0 201.0417)">
			<stop  offset="0" style="stop-color:#7FCDC4"/>
			<stop  offset="0.2469" style="stop-color:#88CDA9"/>
			<stop  offset="0.5415" style="stop-color:#90CC8C"/>
			<stop  offset="0.6486" style="stop-color:#9ECF7E"/>
			<stop  offset="0.8769" style="stop-color:#B7D65E"/>
			<stop  offset="1" style="stop-color:#C0D850"/>
		</linearGradient>
		<path class="st2" d="M201.7,34.9l-8.1,6.6l-0.1,0.1l-0.9-0.7l0,0l-7.2-5.9l10.7-8.8L201.7,34.9z"/>
		
			<linearGradient id="SVGID_4_" gradientUnits="userSpaceOnUse" x1="165.9012" y1="198.9408" x2="165.9012" y2="130.1517" gradientTransform="matrix(1 0 0 -1 0 201.0417)">
			<stop  offset="0" style="stop-color:#7FCDC4"/>
			<stop  offset="0.2469" style="stop-color:#88CDA9"/>
			<stop  offset="0.5415" style="stop-color:#90CC8C"/>
			<stop  offset="0.6486" style="stop-color:#9ECF7E"/>
			<stop  offset="0.8769" style="stop-color:#B7D65E"/>
			<stop  offset="1" style="stop-color:#C0D850"/>
		</linearGradient>
		<path class="st3" d="M165.9,1.2c7.5,0,13.6,6.1,13.6,13.6c0,3.2-1.1,6.2-3,8.5l-1.9,2.9l-8-6.4l1.8-2.8l0.4-0.7
			c0.2-0.4,0.3-0.8,0.3-1.3c0-1.7-1.4-3.1-3.1-3.1s-3.1,1.3-3.1,3.1c0,0.9,0.4,1.8,1.4,2.8l2.3,2l-5.5,8.6l-2.4-1.9
			c-3.8-2.4-6.4-6.7-6.4-11.6C152.3,7.3,158.4,1.2,165.9,1.2z"/>
		
			<linearGradient id="SVGID_5_" gradientUnits="userSpaceOnUse" x1="181.3013" y1="198.9557" x2="181.3013" y2="130.1409" gradientTransform="matrix(1 0 0 -1 0 201.0417)">
			<stop  offset="0" style="stop-color:#7FCDC4"/>
			<stop  offset="0.2469" style="stop-color:#88CDA9"/>
			<stop  offset="0.5415" style="stop-color:#90CC8C"/>
			<stop  offset="0.6486" style="stop-color:#9ECF7E"/>
			<stop  offset="0.8769" style="stop-color:#B7D65E"/>
			<stop  offset="1" style="stop-color:#C0D850"/>
		</linearGradient>
		<polygon class="st4" points="193.6,41.6 185.4,48.2 177.3,41.6 177.2,41.5 169,34.9 174.6,26.2 185.4,35 		"/>
		
			<linearGradient id="SVGID_6_" gradientUnits="userSpaceOnUse" x1="188.1532" y1="163.3248" x2="213.1203" y2="182.5661" gradientTransform="matrix(1 0 0 -1 0 201.0417)">
			<stop  offset="0" style="stop-color:#68C075"/>
			<stop  offset="0.1969" style="stop-color:#86CDB3;stop-opacity:0"/>
			<stop  offset="0.2383" style="stop-color:#86CDB3;stop-opacity:0"/>
			<stop  offset="0.2652" style="stop-color:#7FCAA4;stop-opacity:0.1364"/>
			<stop  offset="0.3059" style="stop-color:#75C592;stop-opacity:0.3431"/>
			<stop  offset="0.3475" style="stop-color:#6EC286;stop-opacity:0.5543"/>
			<stop  offset="0.3901" style="stop-color:#6AC17E;stop-opacity:0.7706"/>
			<stop  offset="0.4352" style="stop-color:#68C07C"/>
			<stop  offset="0.5233" style="stop-color:#86CDB3;stop-opacity:0"/>
			<stop  offset="0.6917" style="stop-color:#63C29E;stop-opacity:0.7228"/>
			<stop  offset="0.7358" style="stop-color:#5DC19A"/>
			<stop  offset="0.878" style="stop-color:#78C8A9;stop-opacity:0.3465"/>
			<stop  offset="0.9534" style="stop-color:#86CDB3;stop-opacity:0"/>
		</linearGradient>
		<path class="st5" d="M208.6,14.8c0,0.1,0,0.1,0,0.2c0,1.1-0.5,2.2-1.6,3.4l0,0l-3,2.6l-6.8,5.4l-11.1,9.1l6.9,5.6l8.3-6.8l8-6.5
			l2.5-2l0,0c3.7-2.3,6-6.5,6-11l0,0C217.8,14.8,208.6,14.8,208.6,14.8z"/>
		
			<linearGradient id="SVGID_7_" gradientUnits="userSpaceOnUse" x1="-59.8496" y1="164.6158" x2="-33.1975" y2="181.4459" gradientTransform="matrix(-1 0 0 -1 123.5933 201.0417)">
			<stop  offset="7.772021e-02" style="stop-color:#82CBAB;stop-opacity:0"/>
			<stop  offset="0.1921" style="stop-color:#75C39D;stop-opacity:0.3619"/>
			<stop  offset="0.3938" style="stop-color:#5FB98A"/>
			<stop  offset="0.4493" style="stop-color:#6CBF95;stop-opacity:0.7321"/>
			<stop  offset="0.5417" style="stop-color:#7CC8A5;stop-opacity:0.2861"/>
			<stop  offset="0.601" style="stop-color:#82CBAB;stop-opacity:0"/>
			<stop  offset="0.6788" style="stop-color:#62BB9C"/>
			<stop  offset="0.7797" style="stop-color:#69BE9F;stop-opacity:0.6391"/>
			<stop  offset="0.9221" style="stop-color:#7CC8A8;stop-opacity:0.1304"/>
			<stop  offset="0.9585" style="stop-color:#82CBAB;stop-opacity:0"/>
		</linearGradient>
		<path class="st6" d="M162.2,14.8c0,0.1,0,0.1,0,0.2c0,1.1,0.5,2.2,1.6,3.4l0,0l3,2.6l6.8,5.4l11.1,9.1l-6.8,5.6l-8.3-6.8l-8-6.5
			l-2.5-2l0,0c-3.7-2.3-6-6.5-6-11l0,0C153.1,14.8,162.2,14.8,162.2,14.8z"/>
		
			<linearGradient id="SVGID_8_" gradientUnits="userSpaceOnUse" x1="184.5529" y1="153.3568" x2="177.7142" y2="143.0683" gradientTransform="matrix(1 0 0 -1 0 201.0417)">
			<stop  offset="0" style="stop-color:#73C160"/>
			<stop  offset="0.1705" style="stop-color:#7AC360;stop-opacity:0.7409"/>
			<stop  offset="0.3905" style="stop-color:#8BC75E;stop-opacity:0.4066"/>
			<stop  offset="0.6366" style="stop-color:#A5D05A;stop-opacity:3.261226e-02"/>
			<stop  offset="0.658" style="stop-color:#A8D05A;stop-opacity:0"/>
		</linearGradient>
		<path class="st7" d="M184.6,64.6c-6.6-0.4-11.8-5.9-11.8-12.5c0-3.7,1.6-7.1,4.4-9.5l0.6-0.5l7,5.6l-2,1.5
			c-0.9,0.8-1.5,1.9-1.5,3.1c0,1.9,1.4,3.5,3.2,3.9L184.6,64.6L184.6,64.6z"/>
		
			<linearGradient id="SVGID_9_" gradientUnits="userSpaceOnUse" x1="215.4439" y1="198.9452" x2="215.4439" y2="130.1562" gradientTransform="matrix(1 0 0 -1 0 201.0417)">
			<stop  offset="0" style="stop-color:#7FCDC4"/>
			<stop  offset="0.2469" style="stop-color:#88CDA9"/>
			<stop  offset="0.5415" style="stop-color:#90CC8C"/>
			<stop  offset="0.6486" style="stop-color:#9ECF7E"/>
			<stop  offset="0.8769" style="stop-color:#B7D65E"/>
			<stop  offset="1" style="stop-color:#C0D850"/>
		</linearGradient>
		<path class="st8" d="M233.5,70.7l-3.7,2.4c-1.3,0.9-3.1,0.5-4-0.9l-24.1-37.3l-5.6-8.7l8-6.4l5.1,8l0.4,0.6l24.7,38.3
			C235.2,68,234.8,69.8,233.5,70.7z"/>
		
			<linearGradient id="SVGID_10_" gradientUnits="userSpaceOnUse" x1="155.2586" y1="198.9492" x2="155.2586" y2="130.1564" gradientTransform="matrix(1 0 0 -1 0 201.0417)">
			<stop  offset="0" style="stop-color:#7FCDC4"/>
			<stop  offset="0.2469" style="stop-color:#88CDA9"/>
			<stop  offset="0.5415" style="stop-color:#90CC8C"/>
			<stop  offset="0.6486" style="stop-color:#9ECF7E"/>
			<stop  offset="0.8769" style="stop-color:#B7D65E"/>
			<stop  offset="1" style="stop-color:#C0D850"/>
		</linearGradient>
		<path class="st9" d="M137.2,70.7l3.7,2.4c1.3,0.9,3.1,0.5,4-0.9L169,34.9l5.6-8.7l-8-6.4l-5.1,8l-0.4,0.6l-24.7,38.3
			C135.5,68,135.9,69.8,137.2,70.7z"/>
	</g>
</g>
<g>
	<path class="st10" d="M30.9,114V99.1c0-4.4-1.9-6.5-4.8-6.5c-3,0-5.1,2.4-5.1,6.3v15.2h-5.6V98.4c0-4.3-2-5.9-4.9-5.9
		c-2.7,0-4.9,1.7-4.9,6.3V114H0V88.2h5.4v2.9c1.7-2.6,4.1-3.4,6.5-3.4c3,0,5.4,1.3,7.2,4.3c1.4-2.5,4.1-4.3,7.5-4.3
		c5.4,0,9.8,3.2,9.8,11.1V114C36.4,114,30.9,114,30.9,114z"/>
	<path class="st10" d="M55,87.8c7.2,0,11.2,3.5,12.1,4.2v22h-5.5v-4.4c-1.4,2.6-4.1,4.8-7.9,4.8c-7.8,0-11.9-5.7-11.9-13.2
		C41.9,93.7,46.6,87.8,55,87.8z M54.3,109.4c4.4,0,7.3-4,7.3-10.4v-4.5C61,94,59,92.8,55.2,92.8c-5.1,0-7.7,4-7.7,8.6
		C47.5,105.9,49.5,109.4,54.3,109.4z"/>
	<path class="st10" d="M91.8,114v-13.4c0-5.5-1.5-8.1-5.6-8.1s-6.7,3.7-6.7,8.4V114h-5.6V88.2h5.6V92c1.5-2.6,4.4-4.1,7.7-4.1
		c7.4,0,10.3,4.6,10.3,12.7v13.5L91.8,114L91.8,114z"/>
	<path class="st10" d="M115.9,114.3H113c-6.4,0-8.6-3-8.6-10V92.8h-4.5l1.2-4.6h3.3V83l5.6-1.2v6.4h6.4v4.6H110v11.6
		c0,4.8,1.2,5.6,6.9,5.1L115.9,114.3z"/>
	<path class="st10" d="M124.6,83.4c-1.9,0-3.3-1.2-3.3-3.2c0-1.9,1.5-3,3.3-3c1.9,0,3.4,1.1,3.4,3.1S126.6,83.4,124.6,83.4z
		 M121.9,114V88.2h5.6V114H121.9z"/>
	<path class="st10" d="M133.4,101.1c0-8.4,5.7-13.4,13.6-13.4c4.9,0,8.3,2.4,8.8,2.7l-1.2,4.9c0,0-3.3-2.7-7.6-2.7
		c-4.6,0-8.2,3-8.2,8.4s3.5,8.6,8.1,8.6c4,0,6.8-2.3,7.2-2.7l2.5,4.5c-3.4,2.2-6.5,3-9.7,3C139.2,114.4,133.4,109.4,133.4,101.1z"/>
	<path class="st10" d="M172.6,114.4c-7.4,0-13.3-4.8-13.3-13.3s5.9-13.3,13.3-13.3c7.5,0,13.3,4.9,13.3,13.4
		C186,109.6,180.1,114.4,172.6,114.4z M172.6,92.7c-4.2,0-7.7,3.1-7.7,8.5s3.5,8.4,7.7,8.4c4.4,0,7.8-3,7.8-8.3
		C180.4,95.8,177,92.7,172.6,92.7z"/>
	<path class="st10" d="M203.9,92.8c-5.9,0-6.7,4.6-6.7,10V114h-5.6V88.2h5.6v3.9c0.9-2.7,3.6-4.3,6.5-4.3c0.6,0,0.9,0,1.5,0.1
		c-0.4,1.8-0.5,3.2-0.9,5L203.9,92.8L203.9,92.8z"/>
	<path class="st10" d="M212.3,102.3c0,4.9,3.6,7.4,8,7.4c3.6,0,5.6-1.5,6.7-2.5l2.8,4.2c-3.3,2.3-6,3.1-9.5,3.1
		c-8.5,0-13.6-5.2-13.6-13.3c0-8,5.3-13.3,12.4-13.3c6.5,0,11.6,4.4,11.6,11.9c0,1.2-0.1,2.6-0.1,2.6L212.3,102.3L212.3,102.3z
		 M212.6,97.9h13c-0.4-3.7-3.1-5.6-6.4-5.6C216.2,92.3,213.6,94.2,212.6,97.9z"/>
	<path class="st11" d="M251.1,95c-2.7-1.9-5-2.5-7-2.5c-1.7,0-3.5,0.7-3.5,2.5c0,4.8,12.9,2.5,12.9,11.5c0,4.8-3.8,7.8-9.7,7.8
		c-2.7,0-5.9-0.5-9.7-3c1-1.4,2.8-4,2.8-4c2,1.4,4.6,2.2,6.7,2.2c2.8,0,4.1-1.2,4.1-3c0-5.3-12.6-2.5-12.6-11.7c0-4.6,3.7-7.3,9-7.3
		c3.3,0,6.1,1.2,7.9,2.5L251.1,95z"/>
	<path class="st11" d="M262.9,102.3c0,4.9,3.6,7.4,8,7.4c3.6,0,5.6-1.5,6.7-2.5l2.8,4.2c-3.3,2.3-6,3.1-9.5,3.1
		c-8.5,0-13.6-5.2-13.6-13.3c0-8,5.3-13.3,12.4-13.3c6.5,0,11.6,4.4,11.6,11.9c0,1.2-0.1,2.6-0.1,2.6L262.9,102.3L262.9,102.3z
		 M263.2,97.9h13c-0.4-3.7-3.1-5.6-6.4-5.6C266.8,92.3,264.2,94.2,263.2,97.9z"/>
	<path class="st11" d="M298.6,87.8c7.2,0,11.2,3.5,12.1,4.2v22h-5.5v-4.4c-1.4,2.6-4.1,4.8-7.9,4.8c-7.8,0-11.9-5.7-11.9-13.2
		C285.4,93.7,290.1,87.8,298.6,87.8z M297.9,109.4c4.4,0,7.3-4,7.3-10.4v-4.5c-0.6-0.5-2.6-1.7-6.4-1.7c-5.1,0-7.7,4-7.7,8.6
		C291.1,105.9,293.1,109.4,297.9,109.4z"/>
	<path class="st11" d="M329.7,92.8c-5.9,0-6.7,4.6-6.7,10V114h-5.6V88.2h5.6v3.9c0.9-2.7,3.6-4.3,6.5-4.3c0.6,0,0.9,0,1.5,0.1
		c-0.4,1.8-0.5,3.2-0.9,5L329.7,92.8L329.7,92.8z"/>
	<path class="st11" d="M332.5,101.1c0-8.4,5.7-13.4,13.6-13.4c4.9,0,8.3,2.4,8.8,2.7l-1.2,4.9c0,0-3.3-2.7-7.6-2.7
		c-4.6,0-8.2,3-8.2,8.4s3.5,8.6,8.1,8.6c4,0,6.8-2.3,7.2-2.7l2.5,4.5c-3.4,2.2-6.5,3-9.7,3C338.3,114.4,332.5,109.4,332.5,101.1z"/>
	<path class="st11" d="M378.3,114v-13.5c0-5.5-1.5-8-5.6-8s-6.7,3.7-6.7,8.4V114h-5.6V76.3l5.6-1.1V92c1.5-2.6,4.7-4.1,7.9-4.1
		c7.2,0,10.1,4.5,10.1,12.6v13.6L378.3,114L378.3,114z"/>
</g>
</svg>
